<?xml version="1.0" encoding="UTF-8" standalone="no"?>
<!DOCTYPE svg PUBLIC "-//W3C//DTD SVG 1.1//EN"
 "http://www.w3.org/Graphics/SVG/1.1/DTD/svg11.dtd">
<!-- Generated by graphviz version 2.40.1 (20161225.0304)
 -->
<!-- Title: dependencies Pages: 1 -->
<svg width="542pt" height="284pt"
 viewBox="0.00 0.00 542.00 284.00" xmlns="http://www.w3.org/2000/svg" xmlns:xlink="http://www.w3.org/1999/xlink">
<g id="graph0" class="graph" transform="scale(1 1) rotate(0) translate(4 280)">
<title>dependencies</title>
<polygon fill="#ffffff" stroke="transparent" points="-4,4 -4,-280 538,-280 538,4 -4,4"/>
<text text-anchor="start" x="246.0091" y="-42.4" font-family="sans-serif" font-weight="bold" font-size="14.00" fill="#000000">Legend</text>
<polygon fill="#ffffb3" stroke="transparent" points="33,-10 33,-30 53,-30 53,-10 33,-10"/>
<text text-anchor="start" x="56.629" y="-15.4" font-family="sans-serif" font-size="14.00" fill="#000000"> &#160;Declarations</text>
<polygon fill="#8dd3c7" stroke="transparent" points="146,-10 146,-30 166,-30 166,-10 146,-10"/>
<text text-anchor="start" x="169.7251" y="-15.4" font-family="sans-serif" font-size="14.00" fill="#000000"> &#160;Module</text>
<polygon fill="#80b1d3" stroke="transparent" points="232,-10 232,-30 252,-30 252,-10 232,-10"/>
<text text-anchor="start" x="255.7812" y="-15.4" font-family="sans-serif" font-size="14.00" fill="#000000"> &#160;Bootstrap</text>
<polygon fill="#fdb462" stroke="transparent" points="329,-10 329,-30 349,-30 349,-10 329,-10"/>
<text text-anchor="start" x="352.6732" y="-15.4" font-family="sans-serif" font-size="14.00" fill="#000000"> &#160;Providers</text>
<polygon fill="#fb8072" stroke="transparent" points="425,-10 425,-30 445,-30 445,-10 425,-10"/>
<text text-anchor="start" x="448.7258" y="-15.4" font-family="sans-serif" font-size="14.00" fill="#000000"> &#160;Exports</text>
<g id="clust1" class="cluster">
<title>cluster_DetailModule03</title>
<polygon fill="none" stroke="#000000" stroke-dasharray="1,5" points="8,-70 8,-268 526,-268 526,-70 8,-70"/>
</g>
<g id="clust2" class="cluster">
<title>cluster_DetailModule03_declarations</title>
<polygon fill="none" stroke="#000000" points="338,-78 338,-130 518,-130 518,-78 338,-78"/>
</g>
<g id="clust4" class="cluster">
<title>cluster_DetailModule03_imports</title>
<polygon fill="none" stroke="#000000" points="16,-78 16,-130 330,-130 330,-78 16,-78"/>
</g>
<g id="clust5" class="cluster">
<title>cluster_DetailModule03_exports</title>
<polygon fill="none" stroke="#000000" points="153,-208 153,-260 337,-260 337,-208 153,-208"/>
</g>
<!-- Detail03HomeComponent -->
<g id="node1" class="node">
<title>Detail03HomeComponent</title>
<polygon fill="#ffffb3" stroke="#000000" points="509.752,-122 346.248,-122 346.248,-86 509.752,-86 509.752,-122"/>
<text text-anchor="middle" x="428" y="-99.8" font-family="Times,serif" font-size="14.00" fill="#000000">Detail03HomeComponent</text>
</g>
<!-- DetailModule03 -->
<g id="node2" class="node">
<title>DetailModule03</title>
<polygon fill="#8dd3c7" stroke="#000000" points="298.7577,-187 295.7577,-191 274.7577,-191 271.7577,-187 191.2423,-187 191.2423,-151 298.7577,-151 298.7577,-187"/>
<text text-anchor="middle" x="245" y="-164.8" font-family="Times,serif" font-size="14.00" fill="#000000">DetailModule03</text>
</g>
<!-- Detail03HomeComponent&#45;&gt;DetailModule03 -->
<g id="edge1" class="edge">
<title>Detail03HomeComponent&#45;&gt;DetailModule03</title>
<path fill="none" stroke="#000000" d="M428,-122.1061C428,-141.3391 428,-169 428,-169 428,-169 308.9163,-169 308.9163,-169"/>
<polygon fill="#000000" stroke="#000000" points="308.9163,-165.5001 298.9163,-169 308.9162,-172.5001 308.9163,-165.5001"/>
</g>
<!-- Detail03HomeComponent  -->
<g id="node5" class="node">
<title>Detail03HomeComponent </title>
<polygon fill="#fb8072" stroke="#000000" points="328.752,-252 161.248,-252 161.248,-216 328.752,-216 328.752,-252"/>
<text text-anchor="middle" x="245" y="-229.8" font-family="Times,serif" font-size="14.00" fill="#000000">Detail03HomeComponent </text>
</g>
<!-- DetailModule03&#45;&gt;Detail03HomeComponent  -->
<g id="edge4" class="edge">
<title>DetailModule03&#45;&gt;Detail03HomeComponent </title>
<path fill="none" stroke="#000000" stroke-dasharray="5,2" d="M245,-187.1061C245,-187.1061 245,-205.991 245,-205.991"/>
<polygon fill="#000000" stroke="#000000" points="241.5001,-205.9909 245,-215.991 248.5001,-205.991 241.5001,-205.9909"/>
</g>
<!-- CommonServiceModule -->
<g id="node3" class="node">
<title>CommonServiceModule</title>
<polygon fill="#8dd3c7" stroke="#000000" points="321.6456,-122 318.6456,-126 297.6456,-126 294.6456,-122 168.3544,-122 168.3544,-86 321.6456,-86 321.6456,-122"/>
<text text-anchor="middle" x="245" y="-99.8" font-family="Times,serif" font-size="14.00" fill="#000000">CommonServiceModule</text>
</g>
<!-- CommonServiceModule&#45;&gt;DetailModule03 -->
<g id="edge2" class="edge">
<title>CommonServiceModule&#45;&gt;DetailModule03</title>
<path fill="none" stroke="#000000" d="M245,-122.1061C245,-122.1061 245,-140.991 245,-140.991"/>
<polygon fill="#000000" stroke="#000000" points="241.5001,-140.9909 245,-150.991 248.5001,-140.991 241.5001,-140.9909"/>
</g>
<!-- CommonUIModule -->
<g id="node4" class="node">
<title>CommonUIModule</title>
<polygon fill="#8dd3c7" stroke="#000000" points="150.4356,-122 147.4356,-126 126.4356,-126 123.4356,-122 23.5644,-122 23.5644,-86 150.4356,-86 150.4356,-122"/>
<text text-anchor="middle" x="87" y="-99.8" font-family="Times,serif" font-size="14.00" fill="#000000">CommonUIModule</text>
</g>
<!-- CommonUIModule&#45;&gt;DetailModule03 -->
<g id="edge3" class="edge">
<title>CommonUIModule&#45;&gt;DetailModule03</title>
<path fill="none" stroke="#000000" d="M87,-122.1061C87,-141.3391 87,-169 87,-169 87,-169 181.0673,-169 181.0673,-169"/>
<polygon fill="#000000" stroke="#000000" points="181.0673,-172.5001 191.0673,-169 181.0672,-165.5001 181.0673,-172.5001"/>
</g>
</g>
</svg>
