<?xml version="1.0" encoding="UTF-8" standalone="no"?>
<!DOCTYPE svg PUBLIC "-//W3C//DTD SVG 1.1//EN"
 "http://www.w3.org/Graphics/SVG/1.1/DTD/svg11.dtd">
<!-- Generated by graphviz version 2.40.1 (20161225.0304)
 -->
<!-- Title: dependencies Pages: 1 -->
<svg width="504pt" height="284pt"
 viewBox="0.00 0.00 504.00 284.00" xmlns="http://www.w3.org/2000/svg" xmlns:xlink="http://www.w3.org/1999/xlink">
<g id="graph0" class="graph" transform="scale(1 1) rotate(0) translate(4 280)">
<title>dependencies</title>
<polygon fill="#ffffff" stroke="transparent" points="-4,4 -4,-280 500,-280 500,4 -4,4"/>
<text text-anchor="start" x="227.0091" y="-42.4" font-family="sans-serif" font-weight="bold" font-size="14.00" fill="#000000">Legend</text>
<polygon fill="#ffffb3" stroke="transparent" points="14,-10 14,-30 34,-30 34,-10 14,-10"/>
<text text-anchor="start" x="37.629" y="-15.4" font-family="sans-serif" font-size="14.00" fill="#000000"> &#160;Declarations</text>
<polygon fill="#8dd3c7" stroke="transparent" points="127,-10 127,-30 147,-30 147,-10 127,-10"/>
<text text-anchor="start" x="150.7251" y="-15.4" font-family="sans-serif" font-size="14.00" fill="#000000"> &#160;Module</text>
<polygon fill="#80b1d3" stroke="transparent" points="213,-10 213,-30 233,-30 233,-10 213,-10"/>
<text text-anchor="start" x="236.7812" y="-15.4" font-family="sans-serif" font-size="14.00" fill="#000000"> &#160;Bootstrap</text>
<polygon fill="#fdb462" stroke="transparent" points="310,-10 310,-30 330,-30 330,-10 310,-10"/>
<text text-anchor="start" x="333.6732" y="-15.4" font-family="sans-serif" font-size="14.00" fill="#000000"> &#160;Providers</text>
<polygon fill="#fb8072" stroke="transparent" points="406,-10 406,-30 426,-30 426,-10 406,-10"/>
<text text-anchor="start" x="429.7258" y="-15.4" font-family="sans-serif" font-size="14.00" fill="#000000"> &#160;Exports</text>
<g id="clust1" class="cluster">
<title>cluster_AppModule</title>
<polygon fill="none" stroke="#000000" stroke-dasharray="1,5" points="30.5,-70 30.5,-268 465.5,-268 465.5,-70 30.5,-70"/>
</g>
<g id="clust2" class="cluster">
<title>cluster_AppModule_declarations</title>
<polygon fill="none" stroke="#000000" points="335.5,-78 335.5,-130 457.5,-130 457.5,-78 335.5,-78"/>
</g>
<g id="clust4" class="cluster">
<title>cluster_AppModule_imports</title>
<polygon fill="none" stroke="#000000" points="38.5,-78 38.5,-130 327.5,-130 327.5,-78 38.5,-78"/>
</g>
<g id="clust6" class="cluster">
<title>cluster_AppModule_bootstrap</title>
<polygon fill="none" stroke="#000000" points="193.5,-208 193.5,-260 317.5,-260 317.5,-208 193.5,-208"/>
</g>
<!-- AppComponent -->
<g id="node1" class="node">
<title>AppComponent</title>
<polygon fill="#ffffb3" stroke="#000000" points="449.4399,-122 343.5601,-122 343.5601,-86 449.4399,-86 449.4399,-122"/>
<text text-anchor="middle" x="396.5" y="-99.8" font-family="Times,serif" font-size="14.00" fill="#000000">AppComponent</text>
</g>
<!-- AppModule -->
<g id="node2" class="node">
<title>AppModule</title>
<polygon fill="#8dd3c7" stroke="#000000" points="297.1571,-187 294.1571,-191 273.1571,-191 270.1571,-187 213.8429,-187 213.8429,-151 297.1571,-151 297.1571,-187"/>
<text text-anchor="middle" x="255.5" y="-164.8" font-family="Times,serif" font-size="14.00" fill="#000000">AppModule</text>
</g>
<!-- AppComponent&#45;&gt;AppModule -->
<g id="edge1" class="edge">
<title>AppComponent&#45;&gt;AppModule</title>
<path fill="none" stroke="#000000" d="M396.5,-122.1061C396.5,-141.3391 396.5,-169 396.5,-169 396.5,-169 307.4229,-169 307.4229,-169"/>
<polygon fill="#000000" stroke="#000000" points="307.4229,-165.5001 297.4229,-169 307.4229,-172.5001 307.4229,-165.5001"/>
</g>
<!-- AppComponent  -->
<g id="node5" class="node">
<title>AppComponent </title>
<polygon fill="#80b1d3" stroke="#000000" points="309.939,-252 201.061,-252 201.061,-216 309.939,-216 309.939,-252"/>
<text text-anchor="middle" x="255.5" y="-229.8" font-family="Times,serif" font-size="14.00" fill="#000000">AppComponent </text>
</g>
<!-- AppModule&#45;&gt;AppComponent  -->
<g id="edge4" class="edge">
<title>AppModule&#45;&gt;AppComponent </title>
<path fill="none" stroke="#000000" stroke-dasharray="1,5" d="M255.5,-187.1061C255.5,-187.1061 255.5,-205.991 255.5,-205.991"/>
<polygon fill="#000000" stroke="#000000" points="252.0001,-205.9909 255.5,-215.991 259.0001,-205.991 252.0001,-205.9909"/>
</g>
<!-- AppRoutingModule -->
<g id="node3" class="node">
<title>AppRoutingModule</title>
<polygon fill="#8dd3c7" stroke="#000000" points="319.7744,-122 316.7744,-126 295.7744,-126 292.7744,-122 191.2256,-122 191.2256,-86 319.7744,-86 319.7744,-122"/>
<text text-anchor="middle" x="255.5" y="-99.8" font-family="Times,serif" font-size="14.00" fill="#000000">AppRoutingModule</text>
</g>
<!-- AppRoutingModule&#45;&gt;AppModule -->
<g id="edge2" class="edge">
<title>AppRoutingModule&#45;&gt;AppModule</title>
<path fill="none" stroke="#000000" d="M255.5,-122.1061C255.5,-122.1061 255.5,-140.991 255.5,-140.991"/>
<polygon fill="#000000" stroke="#000000" points="252.0001,-140.9909 255.5,-150.991 259.0001,-140.991 252.0001,-140.9909"/>
</g>
<!-- CommonUIModule -->
<g id="node4" class="node">
<title>CommonUIModule</title>
<polygon fill="#8dd3c7" stroke="#000000" points="172.9356,-122 169.9356,-126 148.9356,-126 145.9356,-122 46.0644,-122 46.0644,-86 172.9356,-86 172.9356,-122"/>
<text text-anchor="middle" x="109.5" y="-99.8" font-family="Times,serif" font-size="14.00" fill="#000000">CommonUIModule</text>
</g>
<!-- CommonUIModule&#45;&gt;AppModule -->
<g id="edge3" class="edge">
<title>CommonUIModule&#45;&gt;AppModule</title>
<path fill="none" stroke="#000000" d="M109.5,-122.1061C109.5,-141.3391 109.5,-169 109.5,-169 109.5,-169 203.6623,-169 203.6623,-169"/>
<polygon fill="#000000" stroke="#000000" points="203.6623,-172.5001 213.6623,-169 203.6622,-165.5001 203.6623,-172.5001"/>
</g>
</g>
</svg>
