<?xml version="1.0" encoding="UTF-8" standalone="no"?>
<!DOCTYPE svg PUBLIC "-//W3C//DTD SVG 1.1//EN"
 "http://www.w3.org/Graphics/SVG/1.1/DTD/svg11.dtd">
<!-- Generated by graphviz version 2.40.1 (20161225.0304)
 -->
<!-- Title: dependencies Pages: 1 -->
<svg width="1666pt" height="434pt"
 viewBox="0.00 0.00 1666.00 434.00" xmlns="http://www.w3.org/2000/svg" xmlns:xlink="http://www.w3.org/1999/xlink">
<g id="graph0" class="graph" transform="scale(1 1) rotate(0) translate(4 430)">
<title>dependencies</title>
<polygon fill="#ffffff" stroke="transparent" points="-4,4 -4,-430 1662,-430 1662,4 -4,4"/>
<text text-anchor="start" x="808.0091" y="-42.4" font-family="sans-serif" font-weight="bold" font-size="14.00" fill="#000000">Legend</text>
<polygon fill="#ffffb3" stroke="transparent" points="595,-10 595,-30 615,-30 615,-10 595,-10"/>
<text text-anchor="start" x="618.629" y="-15.4" font-family="sans-serif" font-size="14.00" fill="#000000"> &#160;Declarations</text>
<polygon fill="#8dd3c7" stroke="transparent" points="708,-10 708,-30 728,-30 728,-10 708,-10"/>
<text text-anchor="start" x="731.7251" y="-15.4" font-family="sans-serif" font-size="14.00" fill="#000000"> &#160;Module</text>
<polygon fill="#80b1d3" stroke="transparent" points="794,-10 794,-30 814,-30 814,-10 794,-10"/>
<text text-anchor="start" x="817.7812" y="-15.4" font-family="sans-serif" font-size="14.00" fill="#000000"> &#160;Bootstrap</text>
<polygon fill="#fdb462" stroke="transparent" points="891,-10 891,-30 911,-30 911,-10 891,-10"/>
<text text-anchor="start" x="914.6732" y="-15.4" font-family="sans-serif" font-size="14.00" fill="#000000"> &#160;Providers</text>
<polygon fill="#fb8072" stroke="transparent" points="987,-10 987,-30 1007,-30 1007,-10 987,-10"/>
<text text-anchor="start" x="1010.7258" y="-15.4" font-family="sans-serif" font-size="14.00" fill="#000000"> &#160;Exports</text>
<g id="clust1" class="cluster">
<title>cluster_CommonServiceModule</title>
<polygon fill="none" stroke="#000000" stroke-dasharray="1,5" points="418,-70 418,-198 588,-198 588,-70 418,-70"/>
</g>
<g id="clust3" class="cluster">
<title>cluster_CommonServiceModule_imports</title>
<polygon fill="none" stroke="#000000" points="452,-78 452,-130 580,-130 580,-78 452,-78"/>
</g>
<g id="clust7" class="cluster">
<title>cluster_CommonUIModule</title>
<polygon fill="none" stroke="#000000" stroke-dasharray="1,5" points="1248,-70 1248,-282 1392,-282 1392,-70 1248,-70"/>
</g>
<g id="clust8" class="cluster">
<title>cluster_CommonUIModule_declarations</title>
<polygon fill="none" stroke="#000000" points="1257,-78 1257,-130 1381,-130 1381,-78 1257,-78"/>
</g>
<g id="clust11" class="cluster">
<title>cluster_CommonUIModule_exports</title>
<polygon fill="none" stroke="#000000" points="1256,-222 1256,-274 1384,-274 1384,-222 1256,-222"/>
</g>
<g id="clust14" class="cluster">
<title>cluster_AppRoutingModule</title>
<polygon fill="none" stroke="#000000" stroke-dasharray="1,5" points="1440,-138 1440,-350 1650,-350 1650,-138 1440,-138"/>
</g>
<g id="clust16" class="cluster">
<title>cluster_AppRoutingModule_imports</title>
<polygon fill="none" stroke="#000000" points="1448,-146 1448,-198 1642,-198 1642,-146 1448,-146"/>
</g>
<g id="clust17" class="cluster">
<title>cluster_AppRoutingModule_exports</title>
<polygon fill="none" stroke="#000000" points="1470,-290 1470,-342 1588,-342 1588,-290 1470,-290"/>
</g>
<g id="clust20" class="cluster">
<title>cluster_AppModule</title>
<polygon fill="none" stroke="#000000" stroke-dasharray="1,5" points="846,-214 846,-418 1240,-418 1240,-214 846,-214"/>
</g>
<g id="clust21" class="cluster">
<title>cluster_AppModule_declarations</title>
<polygon fill="none" stroke="#000000" points="1110,-222 1110,-274 1232,-274 1232,-222 1110,-222"/>
</g>
<g id="clust23" class="cluster">
<title>cluster_AppModule_imports</title>
<polygon fill="none" stroke="#000000" points="854,-222 854,-274 1102,-274 1102,-222 854,-222"/>
</g>
<g id="clust25" class="cluster">
<title>cluster_AppModule_bootstrap</title>
<polygon fill="none" stroke="#000000" points="1108,-358 1108,-410 1232,-410 1232,-358 1108,-358"/>
</g>
<g id="clust27" class="cluster">
<title>cluster_DetailModule</title>
<polygon fill="none" stroke="#000000" stroke-dasharray="1,5" points="8,-138 8,-350 410,-350 410,-138 8,-138"/>
</g>
<g id="clust28" class="cluster">
<title>cluster_DetailModule_declarations</title>
<polygon fill="none" stroke="#000000" points="16,-146 16,-198 196,-198 196,-146 16,-146"/>
</g>
<g id="clust30" class="cluster">
<title>cluster_DetailModule_imports</title>
<polygon fill="none" stroke="#000000" points="204,-146 204,-198 402,-198 402,-146 204,-146"/>
</g>
<g id="clust31" class="cluster">
<title>cluster_DetailModule_exports</title>
<polygon fill="none" stroke="#000000" points="211,-290 211,-342 395,-342 395,-290 211,-290"/>
</g>
<g id="clust34" class="cluster">
<title>cluster_DetailModule02</title>
<polygon fill="none" stroke="#000000" stroke-dasharray="1,5" points="616,-138 616,-350 816,-350 816,-138 616,-138"/>
</g>
<g id="clust35" class="cluster">
<title>cluster_DetailModule02_declarations</title>
<polygon fill="none" stroke="#000000" points="628,-146 628,-198 808,-198 808,-146 628,-146"/>
</g>
<g id="clust38" class="cluster">
<title>cluster_DetailModule02_exports</title>
<polygon fill="none" stroke="#000000" points="624,-290 624,-342 808,-342 808,-290 624,-290"/>
</g>
<g id="clust41" class="cluster">
<title>cluster_DetailModule03</title>
<polygon fill="none" stroke="#000000" stroke-dasharray="1,5" points="852,-138 852,-206 1240,-206 1240,-138 852,-138"/>
</g>
<g id="clust42" class="cluster">
<title>cluster_DetailModule03_declarations</title>
<polygon fill="none" stroke="#000000" points="1052,-146 1052,-198 1232,-198 1232,-146 1052,-146"/>
</g>
<g id="clust45" class="cluster">
<title>cluster_DetailModule03_exports</title>
<polygon fill="none" stroke="#000000" points="860,-146 860,-198 1044,-198 1044,-146 860,-146"/>
</g>
<!-- CommonModule -->
<g id="node1" class="node">
<title>CommonModule</title>
<polygon fill="#8dd3c7" stroke="#000000" points="571.6681,-122 568.6681,-126 547.6681,-126 544.6681,-122 460.3319,-122 460.3319,-86 571.6681,-86 571.6681,-122"/>
<text text-anchor="middle" x="516" y="-99.8" font-family="Times,serif" font-size="14.00" fill="#000000">CommonModule</text>
</g>
<!-- CommonServiceModule -->
<g id="node2" class="node">
<title>CommonServiceModule</title>
<polygon fill="#8dd3c7" stroke="#000000" points="579.6456,-190 576.6456,-194 555.6456,-194 552.6456,-190 426.3544,-190 426.3544,-154 579.6456,-154 579.6456,-190"/>
<text text-anchor="middle" x="503" y="-167.8" font-family="Times,serif" font-size="14.00" fill="#000000">CommonServiceModule</text>
</g>
<!-- CommonModule&#45;&gt;CommonServiceModule -->
<g id="edge1" class="edge">
<title>CommonModule&#45;&gt;CommonServiceModule</title>
<path fill="none" stroke="#000000" d="M516,-122.2228C516,-122.2228 516,-143.7269 516,-143.7269"/>
<polygon fill="#000000" stroke="#000000" points="512.5001,-143.7269 516,-153.7269 519.5001,-143.727 512.5001,-143.7269"/>
</g>
<!-- CommonUIModule -->
<g id="node4" class="node">
<title>CommonUIModule</title>
<polygon fill="#8dd3c7" stroke="#000000" points="1382.4356,-190 1379.4356,-194 1358.4356,-194 1355.4356,-190 1255.5644,-190 1255.5644,-154 1382.4356,-154 1382.4356,-190"/>
<text text-anchor="middle" x="1319" y="-167.8" font-family="Times,serif" font-size="14.00" fill="#000000">CommonUIModule</text>
</g>
<!-- CommonModule&#45;&gt;CommonUIModule -->
<g id="edge3" class="edge">
<title>CommonModule&#45;&gt;CommonUIModule</title>
<path fill="none" stroke="#000000" d="M571.9546,-95C745.0847,-95 1260.4484,-95 1260.4484,-95 1260.4484,-95 1260.4484,-143.7521 1260.4484,-143.7521"/>
<polygon fill="#000000" stroke="#000000" points="1256.9485,-143.752 1260.4484,-153.7521 1263.9485,-143.7521 1256.9485,-143.752"/>
</g>
<!-- DetailModule03 -->
<g id="node13" class="node">
<title>DetailModule03</title>
<polygon fill="#8dd3c7" stroke="#000000" points="969.7577,-266 966.7577,-270 945.7577,-270 942.7577,-266 862.2423,-266 862.2423,-230 969.7577,-230 969.7577,-266"/>
<text text-anchor="middle" x="916" y="-243.8" font-family="Times,serif" font-size="14.00" fill="#000000">DetailModule03</text>
</g>
<!-- CommonModule&#45;&gt;DetailModule03 -->
<g id="edge33" class="edge">
<title>CommonModule&#45;&gt;DetailModule03</title>
<path fill="none" stroke="#000000" d="M571.9525,-104C662.4705,-104 830.9986,-104 830.9986,-104 830.9986,-104 830.9986,-248 830.9986,-248 830.9986,-248 852.1673,-248 852.1673,-248"/>
<polygon fill="#000000" stroke="#000000" points="852.1674,-251.5001 862.1673,-248 852.1673,-244.5001 852.1674,-251.5001"/>
</g>
<!-- DetailModule -->
<g id="node15" class="node">
<title>DetailModule</title>
<polygon fill="#8dd3c7" stroke="#000000" points="349.7577,-266 346.7577,-270 325.7577,-270 322.7577,-266 256.2423,-266 256.2423,-230 349.7577,-230 349.7577,-266"/>
<text text-anchor="middle" x="303" y="-243.8" font-family="Times,serif" font-size="14.00" fill="#000000">DetailModule</text>
</g>
<!-- CommonModule&#45;&gt;DetailModule -->
<g id="edge21" class="edge">
<title>CommonModule&#45;&gt;DetailModule</title>
<path fill="none" stroke="#000000" d="M460.1519,-104C434.5903,-104 409.8968,-104 409.8968,-104 409.8968,-104 409.8968,-236 409.8968,-236 409.8968,-236 359.8865,-236 359.8865,-236"/>
<polygon fill="#000000" stroke="#000000" points="359.8865,-232.5001 349.8865,-236 359.8864,-239.5001 359.8865,-232.5001"/>
</g>
<!-- DetailModule02 -->
<g id="node19" class="node">
<title>DetailModule02</title>
<polygon fill="#8dd3c7" stroke="#000000" points="750.7577,-266 747.7577,-270 726.7577,-270 723.7577,-266 643.2423,-266 643.2423,-230 750.7577,-230 750.7577,-266"/>
<text text-anchor="middle" x="697" y="-243.8" font-family="Times,serif" font-size="14.00" fill="#000000">DetailModule02</text>
</g>
<!-- CommonModule&#45;&gt;DetailModule02 -->
<g id="edge27" class="edge">
<title>CommonModule&#45;&gt;DetailModule02</title>
<path fill="none" stroke="#000000" d="M571.779,-113C590.2109,-113 606.0984,-113 606.0984,-113 606.0984,-113 606.0984,-242 606.0984,-242 606.0984,-242 633.0715,-242 633.0715,-242"/>
<polygon fill="#000000" stroke="#000000" points="633.0716,-245.5001 643.0715,-242 633.0715,-238.5001 633.0716,-245.5001"/>
</g>
<!-- CommonServiceModule&#45;&gt;DetailModule03 -->
<g id="edge35" class="edge">
<title>CommonServiceModule&#45;&gt;DetailModule03</title>
<path fill="none" stroke="#000000" d="M464.5887,-190.1097C464.5887,-199.897 464.5887,-210 464.5887,-210 464.5887,-210 888.675,-210 888.675,-210 888.675,-210 888.675,-219.8903 888.675,-219.8903"/>
<polygon fill="#000000" stroke="#000000" points="885.1751,-219.8903 888.675,-229.8903 892.1751,-219.8904 885.1751,-219.8903"/>
</g>
<!-- CommonServiceModule&#45;&gt;DetailModule -->
<g id="edge23" class="edge">
<title>CommonServiceModule&#45;&gt;DetailModule</title>
<path fill="none" stroke="#000000" d="M503,-190.0109C503,-212.4852 503,-248 503,-248 503,-248 359.8911,-248 359.8911,-248"/>
<polygon fill="#000000" stroke="#000000" points="359.8911,-244.5001 349.8911,-248 359.8911,-251.5001 359.8911,-244.5001"/>
</g>
<!-- CommonServiceModule&#45;&gt;DetailModule02 -->
<g id="edge29" class="edge">
<title>CommonServiceModule&#45;&gt;DetailModule02</title>
<path fill="none" stroke="#000000" d="M541.4113,-190.1985C541.4113,-214.3563 541.4113,-254 541.4113,-254 541.4113,-254 633.0193,-254 633.0193,-254"/>
<polygon fill="#000000" stroke="#000000" points="633.0193,-257.5001 643.0193,-254 633.0192,-250.5001 633.0193,-257.5001"/>
</g>
<!-- TitleComponent -->
<g id="node3" class="node">
<title>TitleComponent</title>
<polygon fill="#ffffb3" stroke="#000000" points="1372.7716,-122 1265.2284,-122 1265.2284,-86 1372.7716,-86 1372.7716,-122"/>
<text text-anchor="middle" x="1319" y="-99.8" font-family="Times,serif" font-size="14.00" fill="#000000">TitleComponent</text>
</g>
<!-- TitleComponent&#45;&gt;CommonUIModule -->
<g id="edge2" class="edge">
<title>TitleComponent&#45;&gt;CommonUIModule</title>
<path fill="none" stroke="#000000" d="M1319,-122.2228C1319,-122.2228 1319,-143.7269 1319,-143.7269"/>
<polygon fill="#000000" stroke="#000000" points="1315.5001,-143.7269 1319,-153.7269 1322.5001,-143.727 1315.5001,-143.7269"/>
</g>
<!-- TitleComponent  -->
<g id="node5" class="node">
<title>TitleComponent </title>
<polygon fill="#fb8072" stroke="#000000" points="1375.7717,-266 1264.2283,-266 1264.2283,-230 1375.7717,-230 1375.7717,-266"/>
<text text-anchor="middle" x="1320" y="-243.8" font-family="Times,serif" font-size="14.00" fill="#000000">TitleComponent </text>
</g>
<!-- CommonUIModule&#45;&gt;TitleComponent  -->
<g id="edge4" class="edge">
<title>CommonUIModule&#45;&gt;TitleComponent </title>
<path fill="none" stroke="#000000" stroke-dasharray="5,2" d="M1347.8179,-190.0109C1347.8179,-190.0109 1347.8179,-219.855 1347.8179,-219.855"/>
<polygon fill="#000000" stroke="#000000" points="1344.3179,-219.8549 1347.8179,-229.855 1351.3179,-219.855 1344.3179,-219.8549"/>
</g>
<!-- AppModule -->
<g id="node10" class="node">
<title>AppModule</title>
<polygon fill="#8dd3c7" stroke="#000000" points="1212.6571,-334 1209.6571,-338 1188.6571,-338 1185.6571,-334 1129.3429,-334 1129.3429,-298 1212.6571,-298 1212.6571,-334"/>
<text text-anchor="middle" x="1171" y="-311.8" font-family="Times,serif" font-size="14.00" fill="#000000">AppModule</text>
</g>
<!-- CommonUIModule&#45;&gt;AppModule -->
<g id="edge10" class="edge">
<title>CommonUIModule&#45;&gt;AppModule</title>
<path fill="none" stroke="#000000" d="M1260.0734,-190.0718C1260.0734,-226.6481 1260.0734,-306 1260.0734,-306 1260.0734,-306 1222.668,-306 1222.668,-306"/>
<polygon fill="#000000" stroke="#000000" points="1222.668,-302.5001 1212.668,-306 1222.6679,-309.5001 1222.668,-302.5001"/>
</g>
<!-- CommonUIModule&#45;&gt;AppModule -->
<g id="edge17" class="edge">
<title>CommonUIModule&#45;&gt;AppModule</title>
<path fill="none" stroke="#000000" d="M1262.2189,-190.1446C1262.2189,-228.2265 1262.2189,-313 1262.2189,-313 1262.2189,-313 1222.8718,-313 1222.8718,-313"/>
<polygon fill="#000000" stroke="#000000" points="1222.8718,-309.5001 1212.8718,-313 1222.8717,-316.5001 1222.8718,-309.5001"/>
</g>
<!-- CommonUIModule&#45;&gt;DetailModule03 -->
<g id="edge34" class="edge">
<title>CommonUIModule&#45;&gt;DetailModule03</title>
<path fill="none" stroke="#000000" d="M1257.928,-190.1871C1257.928,-205.1824 1257.928,-224 1257.928,-224 1257.928,-224 949.5778,-224 949.5778,-224 949.5778,-224 949.5778,-224.581 949.5778,-224.581"/>
<polygon fill="#000000" stroke="#000000" points="946.078,-219.8097 949.5778,-229.8097 953.078,-219.8098 946.078,-219.8097"/>
</g>
<!-- CommonUIModule&#45;&gt;DetailModule -->
<g id="edge22" class="edge">
<title>CommonUIModule&#45;&gt;DetailModule</title>
<path fill="none" stroke="#000000" d="M1292.1822,-190.1686C1292.1822,-194.0459 1292.1822,-197 1292.1822,-197 1292.1822,-197 318.6262,-197 318.6262,-197 318.6262,-197 318.6262,-219.8757 318.6262,-219.8757"/>
<polygon fill="#000000" stroke="#000000" points="315.1263,-219.8757 318.6262,-229.8757 322.1263,-219.8757 315.1263,-219.8757"/>
</g>
<!-- CommonUIModule&#45;&gt;DetailModule02 -->
<g id="edge28" class="edge">
<title>CommonUIModule&#45;&gt;DetailModule02</title>
<path fill="none" stroke="#000000" d="M1320,-190.2434C1320,-197.4297 1320,-204 1320,-204 1320,-204 714.9596,-204 714.9596,-204 714.9596,-204 714.9596,-219.8495 714.9596,-219.8495"/>
<polygon fill="#000000" stroke="#000000" points="711.4597,-219.8494 714.9596,-229.8495 718.4597,-219.8495 711.4597,-219.8494"/>
</g>
<!-- RouterModule.forRoot(args) -->
<g id="node6" class="node">
<title>RouterModule.forRoot(args)</title>
<polygon fill="#8dd3c7" stroke="#000000" points="1633.8419,-190 1630.8419,-194 1609.8419,-194 1606.8419,-190 1456.1581,-190 1456.1581,-154 1633.8419,-154 1633.8419,-190"/>
<text text-anchor="middle" x="1545" y="-167.8" font-family="Times,serif" font-size="14.00" fill="#000000">RouterModule.forRoot(args)</text>
</g>
<!-- AppRoutingModule -->
<g id="node7" class="node">
<title>AppRoutingModule</title>
<polygon fill="#8dd3c7" stroke="#000000" points="1593.2744,-266 1590.2744,-270 1569.2744,-270 1566.2744,-266 1464.7256,-266 1464.7256,-230 1593.2744,-230 1593.2744,-266"/>
<text text-anchor="middle" x="1529" y="-243.8" font-family="Times,serif" font-size="14.00" fill="#000000">AppRoutingModule</text>
</g>
<!-- RouterModule.forRoot(args)&#45;&gt;AppRoutingModule -->
<g id="edge5" class="edge">
<title>RouterModule.forRoot(args)&#45;&gt;AppRoutingModule</title>
<path fill="none" stroke="#000000" d="M1507.5376,-190.0109C1507.5376,-190.0109 1507.5376,-219.855 1507.5376,-219.855"/>
<polygon fill="#000000" stroke="#000000" points="1504.0377,-219.8549 1507.5376,-229.855 1511.0377,-219.855 1504.0377,-219.8549"/>
</g>
<!-- RouterModule.forRoot(args)&#45;&gt;AppRoutingModule -->
<g id="edge12" class="edge">
<title>RouterModule.forRoot(args)&#45;&gt;AppRoutingModule</title>
<path fill="none" stroke="#000000" d="M1550.4624,-190.0109C1550.4624,-190.0109 1550.4624,-219.855 1550.4624,-219.855"/>
<polygon fill="#000000" stroke="#000000" points="1546.9625,-219.8549 1550.4624,-229.855 1553.9625,-219.855 1546.9625,-219.8549"/>
</g>
<!-- RouterModule  -->
<g id="node8" class="node">
<title>RouterModule </title>
<polygon fill="#fb8072" stroke="#000000" points="1579.6523,-334 1478.3477,-334 1478.3477,-298 1579.6523,-298 1579.6523,-334"/>
<text text-anchor="middle" x="1529" y="-311.8" font-family="Times,serif" font-size="14.00" fill="#000000">RouterModule </text>
</g>
<!-- AppRoutingModule&#45;&gt;RouterModule  -->
<g id="edge6" class="edge">
<title>AppRoutingModule&#45;&gt;RouterModule </title>
<path fill="none" stroke="#000000" stroke-dasharray="5,2" d="M1545.8587,-266.2228C1545.8587,-266.2228 1545.8587,-287.7269 1545.8587,-287.7269"/>
<polygon fill="#000000" stroke="#000000" points="1542.3588,-287.7269 1545.8587,-297.7269 1549.3588,-287.727 1542.3588,-287.7269"/>
</g>
<!-- AppRoutingModule&#45;&gt;RouterModule  -->
<g id="edge13" class="edge">
<title>AppRoutingModule&#45;&gt;RouterModule </title>
<path fill="none" stroke="#000000" stroke-dasharray="5,2" d="M1512.1413,-266.2228C1512.1413,-266.2228 1512.1413,-287.7269 1512.1413,-287.7269"/>
<polygon fill="#000000" stroke="#000000" points="1508.6414,-287.7269 1512.1413,-297.7269 1515.6414,-287.727 1508.6414,-287.7269"/>
</g>
<!-- AppRoutingModule&#45;&gt;AppModule -->
<g id="edge9" class="edge">
<title>AppRoutingModule&#45;&gt;AppModule</title>
<path fill="none" stroke="#000000" d="M1473.8202,-266.3228C1473.8202,-289.6602 1473.8202,-327 1473.8202,-327 1473.8202,-327 1222.7879,-327 1222.7879,-327"/>
<polygon fill="#000000" stroke="#000000" points="1222.788,-323.5001 1212.7879,-327 1222.7879,-330.5001 1222.788,-323.5001"/>
</g>
<!-- AppRoutingModule&#45;&gt;AppModule -->
<g id="edge16" class="edge">
<title>AppRoutingModule&#45;&gt;AppModule</title>
<path fill="none" stroke="#000000" d="M1469.2166,-266.1686C1469.2166,-287.498 1469.2166,-320 1469.2166,-320 1469.2166,-320 1222.7797,-320 1222.7797,-320"/>
<polygon fill="#000000" stroke="#000000" points="1222.7798,-316.5001 1212.7797,-320 1222.7797,-323.5001 1222.7798,-316.5001"/>
</g>
<!-- AppComponent -->
<g id="node9" class="node">
<title>AppComponent</title>
<polygon fill="#ffffb3" stroke="#000000" points="1223.9399,-266 1118.0601,-266 1118.0601,-230 1223.9399,-230 1223.9399,-266"/>
<text text-anchor="middle" x="1171" y="-243.8" font-family="Times,serif" font-size="14.00" fill="#000000">AppComponent</text>
</g>
<!-- AppComponent&#45;&gt;AppModule -->
<g id="edge7" class="edge">
<title>AppComponent&#45;&gt;AppModule</title>
<path fill="none" stroke="#000000" d="M1157.0573,-266.2228C1157.0573,-266.2228 1157.0573,-287.7269 1157.0573,-287.7269"/>
<polygon fill="#000000" stroke="#000000" points="1153.5574,-287.7269 1157.0573,-297.7269 1160.5574,-287.727 1153.5574,-287.7269"/>
</g>
<!-- AppComponent&#45;&gt;AppModule -->
<g id="edge14" class="edge">
<title>AppComponent&#45;&gt;AppModule</title>
<path fill="none" stroke="#000000" d="M1184.9427,-266.2228C1184.9427,-266.2228 1184.9427,-287.7269 1184.9427,-287.7269"/>
<polygon fill="#000000" stroke="#000000" points="1181.4428,-287.7269 1184.9427,-297.7269 1188.4428,-287.727 1181.4428,-287.7269"/>
</g>
<!-- AppComponent  -->
<g id="node12" class="node">
<title>AppComponent </title>
<polygon fill="#80b1d3" stroke="#000000" points="1224.439,-402 1115.561,-402 1115.561,-366 1224.439,-366 1224.439,-402"/>
<text text-anchor="middle" x="1170" y="-379.8" font-family="Times,serif" font-size="14.00" fill="#000000">AppComponent </text>
</g>
<!-- AppModule&#45;&gt;AppComponent  -->
<g id="edge11" class="edge">
<title>AppModule&#45;&gt;AppComponent </title>
<path fill="none" stroke="#000000" stroke-dasharray="1,5" d="M1184.9427,-334.2228C1184.9427,-334.2228 1184.9427,-355.7269 1184.9427,-355.7269"/>
<polygon fill="#000000" stroke="#000000" points="1181.4428,-355.7269 1184.9427,-365.7269 1188.4428,-355.727 1181.4428,-355.7269"/>
</g>
<!-- AppModule&#45;&gt;AppComponent  -->
<g id="edge19" class="edge">
<title>AppModule&#45;&gt;AppComponent </title>
<path fill="none" stroke="#000000" stroke-dasharray="1,5" d="M1157.0573,-334.2228C1157.0573,-334.2228 1157.0573,-355.7269 1157.0573,-355.7269"/>
<polygon fill="#000000" stroke="#000000" points="1153.5574,-355.7269 1157.0573,-365.7269 1160.5574,-355.727 1153.5574,-355.7269"/>
</g>
<!-- BrowserModule -->
<g id="node11" class="node">
<title>BrowserModule</title>
<polygon fill="#8dd3c7" stroke="#000000" points="1094.4734,-266 1091.4734,-270 1070.4734,-270 1067.4734,-266 987.5266,-266 987.5266,-230 1094.4734,-230 1094.4734,-266"/>
<text text-anchor="middle" x="1041" y="-243.8" font-family="Times,serif" font-size="14.00" fill="#000000">BrowserModule</text>
</g>
<!-- BrowserModule&#45;&gt;AppModule -->
<g id="edge8" class="edge">
<title>BrowserModule&#45;&gt;AppModule</title>
<path fill="none" stroke="#000000" d="M1023.1711,-266.2228C1023.1711,-286.3652 1023.1711,-316 1023.1711,-316 1023.1711,-316 1119.0336,-316 1119.0336,-316"/>
<polygon fill="#000000" stroke="#000000" points="1119.0336,-319.5001 1129.0336,-316 1119.0336,-312.5001 1119.0336,-319.5001"/>
</g>
<!-- BrowserModule&#45;&gt;AppModule -->
<g id="edge15" class="edge">
<title>BrowserModule&#45;&gt;AppModule</title>
<path fill="none" stroke="#000000" d="M1058.8289,-266.0225C1058.8289,-283.3734 1058.8289,-307 1058.8289,-307 1058.8289,-307 1119.2316,-307 1119.2316,-307"/>
<polygon fill="#000000" stroke="#000000" points="1119.2317,-310.5001 1129.2316,-307 1119.2316,-303.5001 1119.2317,-310.5001"/>
</g>
<!-- DetailModule03&#45;&gt;AppModule -->
<g id="edge18" class="edge">
<title>DetailModule03&#45;&gt;AppModule</title>
<path fill="none" stroke="#000000" d="M916,-266.2479C916,-289.0179 916,-325 916,-325 916,-325 1119.1775,-325 1119.1775,-325"/>
<polygon fill="#000000" stroke="#000000" points="1119.1775,-328.5001 1129.1775,-325 1119.1774,-321.5001 1119.1775,-328.5001"/>
</g>
<!-- Detail03HomeComponent  -->
<g id="node22" class="node">
<title>Detail03HomeComponent </title>
<polygon fill="#fb8072" stroke="#000000" points="1035.752,-190 868.248,-190 868.248,-154 1035.752,-154 1035.752,-190"/>
<text text-anchor="middle" x="952" y="-167.8" font-family="Times,serif" font-size="14.00" fill="#000000">Detail03HomeComponent </text>
</g>
<!-- DetailModule03&#45;&gt;Detail03HomeComponent  -->
<g id="edge36" class="edge">
<title>DetailModule03&#45;&gt;Detail03HomeComponent </title>
<path fill="none" stroke="#000000" stroke-dasharray="5,2" d="M908.9759,-229.9891C908.9759,-229.9891 908.9759,-200.145 908.9759,-200.145"/>
<polygon fill="#000000" stroke="#000000" points="912.476,-200.145 908.9759,-190.145 905.476,-200.1451 912.476,-200.145"/>
</g>
<!-- Detail01HomeComponent -->
<g id="node14" class="node">
<title>Detail01HomeComponent</title>
<polygon fill="#ffffb3" stroke="#000000" points="187.752,-190 24.248,-190 24.248,-154 187.752,-154 187.752,-190"/>
<text text-anchor="middle" x="106" y="-167.8" font-family="Times,serif" font-size="14.00" fill="#000000">Detail01HomeComponent</text>
</g>
<!-- Detail01HomeComponent&#45;&gt;DetailModule -->
<g id="edge20" class="edge">
<title>Detail01HomeComponent&#45;&gt;DetailModule</title>
<path fill="none" stroke="#000000" d="M106,-190.0109C106,-212.4852 106,-248 106,-248 106,-248 246.0639,-248 246.0639,-248"/>
<polygon fill="#000000" stroke="#000000" points="246.0639,-251.5001 256.0639,-248 246.0638,-244.5001 246.0639,-251.5001"/>
</g>
<!-- Detail01HomeComponent  -->
<g id="node17" class="node">
<title>Detail01HomeComponent </title>
<polygon fill="#fb8072" stroke="#000000" points="386.752,-334 219.248,-334 219.248,-298 386.752,-298 386.752,-334"/>
<text text-anchor="middle" x="303" y="-311.8" font-family="Times,serif" font-size="14.00" fill="#000000">Detail01HomeComponent </text>
</g>
<!-- DetailModule&#45;&gt;Detail01HomeComponent  -->
<g id="edge25" class="edge">
<title>DetailModule&#45;&gt;Detail01HomeComponent </title>
<path fill="none" stroke="#000000" stroke-dasharray="5,2" d="M303,-266.2228C303,-266.2228 303,-287.7269 303,-287.7269"/>
<polygon fill="#000000" stroke="#000000" points="299.5001,-287.7269 303,-297.7269 306.5001,-287.727 299.5001,-287.7269"/>
</g>
<!-- RouterModule.forChild(args) -->
<g id="node16" class="node">
<title>RouterModule.forChild(args)</title>
<polygon fill="#8dd3c7" stroke="#000000" points="393.7323,-190 390.7323,-194 369.7323,-194 366.7323,-190 212.2677,-190 212.2677,-154 393.7323,-154 393.7323,-190"/>
<text text-anchor="middle" x="303" y="-167.8" font-family="Times,serif" font-size="14.00" fill="#000000">RouterModule.forChild(args)</text>
</g>
<!-- RouterModule.forChild(args)&#45;&gt;DetailModule -->
<g id="edge24" class="edge">
<title>RouterModule.forChild(args)&#45;&gt;DetailModule</title>
<path fill="none" stroke="#000000" d="M287.3738,-190.0109C287.3738,-190.0109 287.3738,-219.855 287.3738,-219.855"/>
<polygon fill="#000000" stroke="#000000" points="283.8739,-219.8549 287.3738,-229.855 290.8739,-219.855 283.8739,-219.8549"/>
</g>
<!-- RouterModule.forChild(args)&#45;&gt;DetailModule02 -->
<g id="edge30" class="edge">
<title>RouterModule.forChild(args)&#45;&gt;DetailModule02</title>
<path fill="none" stroke="#000000" d="M368.2523,-190.2337C368.2523,-216.0094 368.2523,-260 368.2523,-260 368.2523,-260 633.0821,-260 633.0821,-260"/>
<polygon fill="#000000" stroke="#000000" points="633.0822,-263.5001 643.0821,-260 633.0821,-256.5001 633.0822,-263.5001"/>
</g>
<!-- Detail02HomeComponent -->
<g id="node18" class="node">
<title>Detail02HomeComponent</title>
<polygon fill="#ffffb3" stroke="#000000" points="799.752,-190 636.248,-190 636.248,-154 799.752,-154 799.752,-190"/>
<text text-anchor="middle" x="718" y="-167.8" font-family="Times,serif" font-size="14.00" fill="#000000">Detail02HomeComponent</text>
</g>
<!-- Detail02HomeComponent&#45;&gt;DetailModule02 -->
<g id="edge26" class="edge">
<title>Detail02HomeComponent&#45;&gt;DetailModule02</title>
<path fill="none" stroke="#000000" d="M679.0404,-190.0109C679.0404,-190.0109 679.0404,-219.855 679.0404,-219.855"/>
<polygon fill="#000000" stroke="#000000" points="675.5405,-219.8549 679.0404,-229.855 682.5405,-219.855 675.5405,-219.8549"/>
</g>
<!-- Detail02HomeComponent  -->
<g id="node20" class="node">
<title>Detail02HomeComponent </title>
<polygon fill="#fb8072" stroke="#000000" points="799.752,-334 632.248,-334 632.248,-298 799.752,-298 799.752,-334"/>
<text text-anchor="middle" x="716" y="-311.8" font-family="Times,serif" font-size="14.00" fill="#000000">Detail02HomeComponent </text>
</g>
<!-- DetailModule02&#45;&gt;Detail02HomeComponent  -->
<g id="edge31" class="edge">
<title>DetailModule02&#45;&gt;Detail02HomeComponent </title>
<path fill="none" stroke="#000000" stroke-dasharray="5,2" d="M697,-266.2228C697,-266.2228 697,-287.7269 697,-287.7269"/>
<polygon fill="#000000" stroke="#000000" points="693.5001,-287.7269 697,-297.7269 700.5001,-287.727 693.5001,-287.7269"/>
</g>
<!-- Detail03HomeComponent -->
<g id="node21" class="node">
<title>Detail03HomeComponent</title>
<polygon fill="#ffffb3" stroke="#000000" points="1223.752,-190 1060.248,-190 1060.248,-154 1223.752,-154 1223.752,-190"/>
<text text-anchor="middle" x="1142" y="-167.8" font-family="Times,serif" font-size="14.00" fill="#000000">Detail03HomeComponent</text>
</g>
<!-- Detail03HomeComponent&#45;&gt;DetailModule03 -->
<g id="edge32" class="edge">
<title>Detail03HomeComponent&#45;&gt;DetailModule03</title>
<path fill="none" stroke="#000000" d="M1077.3054,-190.0439C1077.3054,-202.5633 1077.3054,-217 1077.3054,-217 1077.3054,-217 929.2769,-217 929.2769,-217 929.2769,-217 929.2769,-219.9672 929.2769,-219.9672"/>
<polygon fill="#000000" stroke="#000000" points="925.777,-219.9671 929.2769,-229.9672 932.777,-219.9672 925.777,-219.9671"/>
</g>
</g>
</svg>
