<?xml version="1.0" encoding="UTF-8" standalone="no"?>
<!DOCTYPE svg PUBLIC "-//W3C//DTD SVG 1.1//EN"
 "http://www.w3.org/Graphics/SVG/1.1/DTD/svg11.dtd">
<!-- Generated by graphviz version 2.40.1 (20161225.0304)
 -->
<!-- Title: dependencies Pages: 1 -->
<svg width="1729pt" height="366pt"
 viewBox="0.00 0.00 1729.00 366.00" xmlns="http://www.w3.org/2000/svg" xmlns:xlink="http://www.w3.org/1999/xlink">
<g id="graph0" class="graph" transform="scale(1 1) rotate(0) translate(4 362)">
<title>dependencies</title>
<polygon fill="#ffffff" stroke="transparent" points="-4,4 -4,-362 1725,-362 1725,4 -4,4"/>
<text text-anchor="start" x="839.5091" y="-42.4" font-family="sans-serif" font-weight="bold" font-size="14.00" fill="#000000">Legend</text>
<polygon fill="#ffffb3" stroke="transparent" points="626.5,-10 626.5,-30 646.5,-30 646.5,-10 626.5,-10"/>
<text text-anchor="start" x="650.129" y="-15.4" font-family="sans-serif" font-size="14.00" fill="#000000"> &#160;Declarations</text>
<polygon fill="#8dd3c7" stroke="transparent" points="739.5,-10 739.5,-30 759.5,-30 759.5,-10 739.5,-10"/>
<text text-anchor="start" x="763.2251" y="-15.4" font-family="sans-serif" font-size="14.00" fill="#000000"> &#160;Module</text>
<polygon fill="#80b1d3" stroke="transparent" points="825.5,-10 825.5,-30 845.5,-30 845.5,-10 825.5,-10"/>
<text text-anchor="start" x="849.2812" y="-15.4" font-family="sans-serif" font-size="14.00" fill="#000000"> &#160;Bootstrap</text>
<polygon fill="#fdb462" stroke="transparent" points="922.5,-10 922.5,-30 942.5,-30 942.5,-10 922.5,-10"/>
<text text-anchor="start" x="946.1732" y="-15.4" font-family="sans-serif" font-size="14.00" fill="#000000"> &#160;Providers</text>
<polygon fill="#fb8072" stroke="transparent" points="1018.5,-10 1018.5,-30 1038.5,-30 1038.5,-10 1018.5,-10"/>
<text text-anchor="start" x="1042.2258" y="-15.4" font-family="sans-serif" font-size="14.00" fill="#000000"> &#160;Exports</text>
<g id="clust1" class="cluster">
<title>cluster_AppModule</title>
<polygon fill="none" stroke="#000000" stroke-dasharray="1,5" points="292,-70 292,-350 727,-350 727,-70 292,-70"/>
</g>
<g id="clust2" class="cluster">
<title>cluster_AppModule_declarations</title>
<polygon fill="none" stroke="#000000" points="300,-146 300,-198 422,-198 422,-146 300,-146"/>
</g>
<g id="clust4" class="cluster">
<title>cluster_AppModule_imports</title>
<polygon fill="none" stroke="#000000" points="430,-78 430,-198 719,-198 719,-78 430,-78"/>
</g>
<g id="clust6" class="cluster">
<title>cluster_AppModule_bootstrap</title>
<polygon fill="none" stroke="#000000" points="439,-290 439,-342 563,-342 563,-290 439,-290"/>
</g>
<g id="clust20" class="cluster">
<title>cluster_CommonUIModule</title>
<polygon fill="none" stroke="#000000" stroke-dasharray="1,5" points="8,-138 8,-206 284,-206 284,-138 8,-138"/>
</g>
<g id="clust21" class="cluster">
<title>cluster_CommonUIModule_declarations</title>
<polygon fill="none" stroke="#000000" points="152,-146 152,-198 276,-198 276,-146 152,-146"/>
</g>
<g id="clust24" class="cluster">
<title>cluster_CommonUIModule_exports</title>
<polygon fill="none" stroke="#000000" points="16,-146 16,-198 144,-198 144,-146 16,-146"/>
</g>
<g id="clust27" class="cluster">
<title>cluster_DetailModule</title>
<polygon fill="none" stroke="#000000" stroke-dasharray="1,5" points="1131,-70 1131,-282 1505,-282 1505,-70 1131,-70"/>
</g>
<g id="clust28" class="cluster">
<title>cluster_DetailModule_declarations</title>
<polygon fill="none" stroke="#000000" points="1317,-78 1317,-130 1497,-130 1497,-78 1317,-78"/>
</g>
<g id="clust30" class="cluster">
<title>cluster_DetailModule_imports</title>
<polygon fill="none" stroke="#000000" points="1139,-78 1139,-130 1309,-130 1309,-78 1139,-78"/>
</g>
<g id="clust31" class="cluster">
<title>cluster_DetailModule_exports</title>
<polygon fill="none" stroke="#000000" points="1139,-222 1139,-274 1323,-274 1323,-222 1139,-222"/>
</g>
<g id="clust34" class="cluster">
<title>cluster_DetailModule02</title>
<polygon fill="none" stroke="#000000" stroke-dasharray="1,5" points="1513,-70 1513,-282 1713,-282 1713,-70 1513,-70"/>
</g>
<g id="clust35" class="cluster">
<title>cluster_DetailModule02_declarations</title>
<polygon fill="none" stroke="#000000" points="1521,-78 1521,-130 1701,-130 1701,-78 1521,-78"/>
</g>
<g id="clust38" class="cluster">
<title>cluster_DetailModule02_exports</title>
<polygon fill="none" stroke="#000000" points="1521,-222 1521,-274 1705,-274 1705,-222 1521,-222"/>
</g>
<g id="clust41" class="cluster">
<title>cluster_DetailModule03</title>
<polygon fill="none" stroke="#000000" stroke-dasharray="1,5" points="735,-214 735,-282 1123,-282 1123,-214 735,-214"/>
</g>
<g id="clust42" class="cluster">
<title>cluster_DetailModule03_declarations</title>
<polygon fill="none" stroke="#000000" points="935,-222 935,-274 1115,-274 1115,-222 935,-222"/>
</g>
<g id="clust45" class="cluster">
<title>cluster_DetailModule03_exports</title>
<polygon fill="none" stroke="#000000" points="743,-222 743,-274 927,-274 927,-222 743,-222"/>
</g>
<!-- AppComponent -->
<g id="node1" class="node">
<title>AppComponent</title>
<polygon fill="#ffffb3" stroke="#000000" points="413.9399,-190 308.0601,-190 308.0601,-154 413.9399,-154 413.9399,-190"/>
<text text-anchor="middle" x="361" y="-167.8" font-family="Times,serif" font-size="14.00" fill="#000000">AppComponent</text>
</g>
<!-- AppModule -->
<g id="node2" class="node">
<title>AppModule</title>
<polygon fill="#8dd3c7" stroke="#000000" points="542.6571,-266 539.6571,-270 518.6571,-270 515.6571,-266 459.3429,-266 459.3429,-230 542.6571,-230 542.6571,-266"/>
<text text-anchor="middle" x="501" y="-243.8" font-family="Times,serif" font-size="14.00" fill="#000000">AppModule</text>
</g>
<!-- AppComponent&#45;&gt;AppModule -->
<g id="edge1" class="edge">
<title>AppComponent&#45;&gt;AppModule</title>
<path fill="none" stroke="#000000" d="M413.7743,-183C442.8534,-183 473.1145,-183 473.1145,-183 473.1145,-183 473.1145,-219.8939 473.1145,-219.8939"/>
<polygon fill="#000000" stroke="#000000" points="469.6146,-219.8938 473.1145,-229.8939 476.6146,-219.8939 469.6146,-219.8938"/>
</g>
<!-- AppComponent&#45;&gt;AppModule -->
<g id="edge5" class="edge">
<title>AppComponent&#45;&gt;AppModule</title>
<path fill="none" stroke="#000000" d="M413.7292,-176C448.2722,-176 487.0573,-176 487.0573,-176 487.0573,-176 487.0573,-219.8314 487.0573,-219.8314"/>
<polygon fill="#000000" stroke="#000000" points="483.5574,-219.8313 487.0573,-229.8314 490.5574,-219.8314 483.5574,-219.8313"/>
</g>
<!-- AppComponent  -->
<g id="node5" class="node">
<title>AppComponent </title>
<polygon fill="#80b1d3" stroke="#000000" points="555.439,-334 446.561,-334 446.561,-298 555.439,-298 555.439,-334"/>
<text text-anchor="middle" x="501" y="-311.8" font-family="Times,serif" font-size="14.00" fill="#000000">AppComponent </text>
</g>
<!-- AppModule&#45;&gt;AppComponent  -->
<g id="edge4" class="edge">
<title>AppModule&#45;&gt;AppComponent </title>
<path fill="none" stroke="#000000" stroke-dasharray="1,5" d="M487.0573,-266.2228C487.0573,-266.2228 487.0573,-287.7269 487.0573,-287.7269"/>
<polygon fill="#000000" stroke="#000000" points="483.5574,-287.7269 487.0573,-297.7269 490.5574,-287.727 483.5574,-287.7269"/>
</g>
<!-- AppModule&#45;&gt;AppComponent  -->
<g id="edge9" class="edge">
<title>AppModule&#45;&gt;AppComponent </title>
<path fill="none" stroke="#000000" stroke-dasharray="1,5" d="M514.9427,-266.2228C514.9427,-266.2228 514.9427,-287.7269 514.9427,-287.7269"/>
<polygon fill="#000000" stroke="#000000" points="511.4428,-287.7269 514.9427,-297.7269 518.4428,-287.727 511.4428,-287.7269"/>
</g>
<!-- AppRoutingModule -->
<g id="node3" class="node">
<title>AppRoutingModule</title>
<polygon fill="#8dd3c7" stroke="#000000" points="711.2744,-122 708.2744,-126 687.2744,-126 684.2744,-122 582.7256,-122 582.7256,-86 711.2744,-86 711.2744,-122"/>
<text text-anchor="middle" x="647" y="-99.8" font-family="Times,serif" font-size="14.00" fill="#000000">AppRoutingModule</text>
</g>
<!-- AppRoutingModule&#45;&gt;AppModule -->
<g id="edge2" class="edge">
<title>AppRoutingModule&#45;&gt;AppModule</title>
<path fill="none" stroke="#000000" d="M596.2852,-122.2377C596.2852,-160.9861 596.2852,-248 596.2852,-248 596.2852,-248 552.7935,-248 552.7935,-248"/>
<polygon fill="#000000" stroke="#000000" points="552.7935,-244.5001 542.7935,-248 552.7934,-251.5001 552.7935,-244.5001"/>
</g>
<!-- AppRoutingModule&#45;&gt;AppModule -->
<g id="edge6" class="edge">
<title>AppRoutingModule&#45;&gt;AppModule</title>
<path fill="none" stroke="#000000" d="M589.449,-122.2067C589.449,-159.0559 589.449,-239 589.449,-239 589.449,-239 552.8933,-239 552.8933,-239"/>
<polygon fill="#000000" stroke="#000000" points="552.8934,-235.5001 542.8933,-239 552.8933,-242.5001 552.8934,-235.5001"/>
</g>
<!-- CommonUIModule -->
<g id="node4" class="node">
<title>CommonUIModule</title>
<polygon fill="#8dd3c7" stroke="#000000" points="564.4356,-122 561.4356,-126 540.4356,-126 537.4356,-122 437.5644,-122 437.5644,-86 564.4356,-86 564.4356,-122"/>
<text text-anchor="middle" x="501" y="-99.8" font-family="Times,serif" font-size="14.00" fill="#000000">CommonUIModule</text>
</g>
<!-- CommonUIModule&#45;&gt;AppModule -->
<g id="edge3" class="edge">
<title>CommonUIModule&#45;&gt;AppModule</title>
<path fill="none" stroke="#000000" d="M501,-122.2377C501,-122.2377 501,-219.9104 501,-219.9104"/>
<polygon fill="#000000" stroke="#000000" points="497.5001,-219.9103 501,-229.9104 504.5001,-219.9104 497.5001,-219.9103"/>
</g>
<!-- CommonUIModule&#45;&gt;AppModule -->
<g id="edge7" class="edge">
<title>CommonUIModule&#45;&gt;AppModule</title>
<path fill="none" stroke="#000000" d="M514.9427,-122.2377C514.9427,-122.2377 514.9427,-219.9104 514.9427,-219.9104"/>
<polygon fill="#000000" stroke="#000000" points="511.4428,-219.9103 514.9427,-229.9104 518.4428,-219.9104 511.4428,-219.9103"/>
</g>
<!-- DetailModule03 -->
<g id="node6" class="node">
<title>DetailModule03</title>
<polygon fill="#8dd3c7" stroke="#000000" points="710.7577,-190 707.7577,-194 686.7577,-194 683.7577,-190 603.2423,-190 603.2423,-154 710.7577,-154 710.7577,-190"/>
<text text-anchor="middle" x="657" y="-167.8" font-family="Times,serif" font-size="14.00" fill="#000000">DetailModule03</text>
</g>
<!-- CommonUIModule&#45;&gt;DetailModule03 -->
<g id="edge22" class="edge">
<title>CommonUIModule&#45;&gt;DetailModule03</title>
<path fill="none" stroke="#000000" d="M562.0304,-122.0336C562.0304,-139.0597 562.0304,-162 562.0304,-162 562.0304,-162 593.1331,-162 593.1331,-162"/>
<polygon fill="#000000" stroke="#000000" points="593.1331,-165.5001 603.1331,-162 593.1331,-158.5001 593.1331,-165.5001"/>
</g>
<!-- TitleComponent  -->
<g id="node8" class="node">
<title>TitleComponent </title>
<polygon fill="#fb8072" stroke="#000000" points="135.7717,-190 24.2283,-190 24.2283,-154 135.7717,-154 135.7717,-190"/>
<text text-anchor="middle" x="80" y="-167.8" font-family="Times,serif" font-size="14.00" fill="#000000">TitleComponent </text>
</g>
<!-- CommonUIModule&#45;&gt;TitleComponent  -->
<g id="edge11" class="edge">
<title>CommonUIModule&#45;&gt;TitleComponent </title>
<path fill="none" stroke="#000000" stroke-dasharray="5,2" d="M437.5162,-98C319.906,-98 80,-98 80,-98 80,-98 80,-143.7079 80,-143.7079"/>
<polygon fill="#000000" stroke="#000000" points="76.5001,-143.7078 80,-153.7079 83.5001,-143.7079 76.5001,-143.7078"/>
</g>
<!-- DetailModule -->
<g id="node10" class="node">
<title>DetailModule</title>
<polygon fill="#8dd3c7" stroke="#000000" points="1273.7577,-190 1270.7577,-194 1249.7577,-194 1246.7577,-190 1180.2423,-190 1180.2423,-154 1273.7577,-154 1273.7577,-190"/>
<text text-anchor="middle" x="1227" y="-167.8" font-family="Times,serif" font-size="14.00" fill="#000000">DetailModule</text>
</g>
<!-- CommonUIModule&#45;&gt;DetailModule -->
<g id="edge14" class="edge">
<title>CommonUIModule&#45;&gt;DetailModule</title>
<path fill="none" stroke="#000000" d="M557.6565,-122.1274C557.6565,-132.7109 557.6565,-144 557.6565,-144 557.6565,-144 1211.3738,-144 1211.3738,-144 1211.3738,-144 1211.3738,-144.9793 1211.3738,-144.9793"/>
<polygon fill="#000000" stroke="#000000" points="1207.8739,-143.793 1211.3738,-153.793 1214.8739,-143.7931 1207.8739,-143.793"/>
</g>
<!-- DetailModule02 -->
<g id="node14" class="node">
<title>DetailModule02</title>
<polygon fill="#8dd3c7" stroke="#000000" points="1646.7577,-190 1643.7577,-194 1622.7577,-194 1619.7577,-190 1539.2423,-190 1539.2423,-154 1646.7577,-154 1646.7577,-190"/>
<text text-anchor="middle" x="1593" y="-167.8" font-family="Times,serif" font-size="14.00" fill="#000000">DetailModule02</text>
</g>
<!-- CommonUIModule&#45;&gt;DetailModule02 -->
<g id="edge18" class="edge">
<title>CommonUIModule&#45;&gt;DetailModule02</title>
<path fill="none" stroke="#000000" d="M559.8435,-122.2015C559.8435,-128.028 559.8435,-133 559.8435,-133 559.8435,-133 1575.0404,-133 1575.0404,-133 1575.0404,-133 1575.0404,-143.8701 1575.0404,-143.8701"/>
<polygon fill="#000000" stroke="#000000" points="1571.5405,-143.8701 1575.0404,-153.8701 1578.5405,-143.8701 1571.5405,-143.8701"/>
</g>
<!-- DetailModule03&#45;&gt;AppModule -->
<g id="edge8" class="edge">
<title>DetailModule03&#45;&gt;AppModule</title>
<path fill="none" stroke="#000000" d="M603.0392,-169C568.0264,-169 528.8855,-169 528.8855,-169 528.8855,-169 528.8855,-219.6772 528.8855,-219.6772"/>
<polygon fill="#000000" stroke="#000000" points="525.3856,-219.6772 528.8855,-229.6772 532.3856,-219.6773 525.3856,-219.6772"/>
</g>
<!-- Detail03HomeComponent  -->
<g id="node17" class="node">
<title>Detail03HomeComponent </title>
<polygon fill="#fb8072" stroke="#000000" points="918.752,-266 751.248,-266 751.248,-230 918.752,-230 918.752,-266"/>
<text text-anchor="middle" x="835" y="-243.8" font-family="Times,serif" font-size="14.00" fill="#000000">Detail03HomeComponent </text>
</g>
<!-- DetailModule03&#45;&gt;Detail03HomeComponent  -->
<g id="edge23" class="edge">
<title>DetailModule03&#45;&gt;Detail03HomeComponent </title>
<path fill="none" stroke="#000000" stroke-dasharray="5,2" d="M657,-190.0263C657,-214.9773 657,-257 657,-257 657,-257 741.2122,-257 741.2122,-257"/>
<polygon fill="#000000" stroke="#000000" points="741.2122,-260.5001 751.2122,-257 741.2122,-253.5001 741.2122,-260.5001"/>
</g>
<!-- TitleComponent -->
<g id="node7" class="node">
<title>TitleComponent</title>
<polygon fill="#ffffb3" stroke="#000000" points="267.7716,-190 160.2284,-190 160.2284,-154 267.7716,-154 267.7716,-190"/>
<text text-anchor="middle" x="214" y="-167.8" font-family="Times,serif" font-size="14.00" fill="#000000">TitleComponent</text>
</g>
<!-- TitleComponent&#45;&gt;CommonUIModule -->
<g id="edge10" class="edge">
<title>TitleComponent&#45;&gt;CommonUIModule</title>
<path fill="none" stroke="#000000" d="M214,-153.7333C214,-135.4448 214,-110 214,-110 214,-110 427.6613,-110 427.6613,-110"/>
<polygon fill="#000000" stroke="#000000" points="427.6614,-113.5001 437.6613,-110 427.6613,-106.5001 427.6614,-113.5001"/>
</g>
<!-- Detail01HomeComponent -->
<g id="node9" class="node">
<title>Detail01HomeComponent</title>
<polygon fill="#ffffb3" stroke="#000000" points="1488.752,-122 1325.248,-122 1325.248,-86 1488.752,-86 1488.752,-122"/>
<text text-anchor="middle" x="1407" y="-99.8" font-family="Times,serif" font-size="14.00" fill="#000000">Detail01HomeComponent</text>
</g>
<!-- Detail01HomeComponent&#45;&gt;DetailModule -->
<g id="edge12" class="edge">
<title>Detail01HomeComponent&#45;&gt;DetailModule</title>
<path fill="none" stroke="#000000" d="M1407,-122.2667C1407,-140.5552 1407,-166 1407,-166 1407,-166 1283.823,-166 1283.823,-166"/>
<polygon fill="#000000" stroke="#000000" points="1283.823,-162.5001 1273.823,-166 1283.823,-169.5001 1283.823,-162.5001"/>
</g>
<!-- Detail01HomeComponent  -->
<g id="node12" class="node">
<title>Detail01HomeComponent </title>
<polygon fill="#fb8072" stroke="#000000" points="1314.752,-266 1147.248,-266 1147.248,-230 1314.752,-230 1314.752,-266"/>
<text text-anchor="middle" x="1231" y="-243.8" font-family="Times,serif" font-size="14.00" fill="#000000">Detail01HomeComponent </text>
</g>
<!-- DetailModule&#45;&gt;Detail01HomeComponent  -->
<g id="edge15" class="edge">
<title>DetailModule&#45;&gt;Detail01HomeComponent </title>
<path fill="none" stroke="#000000" stroke-dasharray="5,2" d="M1227,-190.0109C1227,-190.0109 1227,-219.855 1227,-219.855"/>
<polygon fill="#000000" stroke="#000000" points="1223.5001,-219.8549 1227,-229.855 1230.5001,-219.855 1223.5001,-219.8549"/>
</g>
<!-- CommonServiceModule -->
<g id="node11" class="node">
<title>CommonServiceModule</title>
<polygon fill="#8dd3c7" stroke="#000000" points="1300.6456,-122 1297.6456,-126 1276.6456,-126 1273.6456,-122 1147.3544,-122 1147.3544,-86 1300.6456,-86 1300.6456,-122"/>
<text text-anchor="middle" x="1224" y="-99.8" font-family="Times,serif" font-size="14.00" fill="#000000">CommonServiceModule</text>
</g>
<!-- CommonServiceModule&#45;&gt;DetailModule03 -->
<g id="edge21" class="edge">
<title>CommonServiceModule&#45;&gt;DetailModule03</title>
<path fill="none" stroke="#000000" d="M1163.7477,-122.2667C1163.7477,-140.5552 1163.7477,-166 1163.7477,-166 1163.7477,-166 721.2309,-166 721.2309,-166"/>
<polygon fill="#000000" stroke="#000000" points="721.2309,-162.5001 711.2309,-166 721.2308,-169.5001 721.2309,-162.5001"/>
</g>
<!-- CommonServiceModule&#45;&gt;DetailModule -->
<g id="edge13" class="edge">
<title>CommonServiceModule&#45;&gt;DetailModule</title>
<path fill="none" stroke="#000000" d="M1242.6262,-122.2228C1242.6262,-122.2228 1242.6262,-143.7269 1242.6262,-143.7269"/>
<polygon fill="#000000" stroke="#000000" points="1239.1263,-143.7269 1242.6262,-153.7269 1246.1263,-143.727 1239.1263,-143.7269"/>
</g>
<!-- CommonServiceModule&#45;&gt;DetailModule02 -->
<g id="edge17" class="edge">
<title>CommonServiceModule&#45;&gt;DetailModule02</title>
<path fill="none" stroke="#000000" d="M1287.3506,-122.2921C1287.3506,-144.2057 1287.3506,-178 1287.3506,-178 1287.3506,-178 1529.0596,-178 1529.0596,-178"/>
<polygon fill="#000000" stroke="#000000" points="1529.0596,-181.5001 1539.0596,-178 1529.0596,-174.5001 1529.0596,-181.5001"/>
</g>
<!-- Detail02HomeComponent -->
<g id="node13" class="node">
<title>Detail02HomeComponent</title>
<polygon fill="#ffffb3" stroke="#000000" points="1692.752,-122 1529.248,-122 1529.248,-86 1692.752,-86 1692.752,-122"/>
<text text-anchor="middle" x="1611" y="-99.8" font-family="Times,serif" font-size="14.00" fill="#000000">Detail02HomeComponent</text>
</g>
<!-- Detail02HomeComponent&#45;&gt;DetailModule02 -->
<g id="edge16" class="edge">
<title>Detail02HomeComponent&#45;&gt;DetailModule02</title>
<path fill="none" stroke="#000000" d="M1610.9596,-122.2228C1610.9596,-122.2228 1610.9596,-143.7269 1610.9596,-143.7269"/>
<polygon fill="#000000" stroke="#000000" points="1607.4597,-143.7269 1610.9596,-153.7269 1614.4597,-143.727 1607.4597,-143.7269"/>
</g>
<!-- Detail02HomeComponent  -->
<g id="node15" class="node">
<title>Detail02HomeComponent </title>
<polygon fill="#fb8072" stroke="#000000" points="1696.752,-266 1529.248,-266 1529.248,-230 1696.752,-230 1696.752,-266"/>
<text text-anchor="middle" x="1613" y="-243.8" font-family="Times,serif" font-size="14.00" fill="#000000">Detail02HomeComponent </text>
</g>
<!-- DetailModule02&#45;&gt;Detail02HomeComponent  -->
<g id="edge19" class="edge">
<title>DetailModule02&#45;&gt;Detail02HomeComponent </title>
<path fill="none" stroke="#000000" stroke-dasharray="5,2" d="M1593,-190.0109C1593,-190.0109 1593,-219.855 1593,-219.855"/>
<polygon fill="#000000" stroke="#000000" points="1589.5001,-219.8549 1593,-229.855 1596.5001,-219.855 1589.5001,-219.8549"/>
</g>
<!-- Detail03HomeComponent -->
<g id="node16" class="node">
<title>Detail03HomeComponent</title>
<polygon fill="#ffffb3" stroke="#000000" points="1106.752,-266 943.248,-266 943.248,-230 1106.752,-230 1106.752,-266"/>
<text text-anchor="middle" x="1025" y="-243.8" font-family="Times,serif" font-size="14.00" fill="#000000">Detail03HomeComponent</text>
</g>
<!-- Detail03HomeComponent&#45;&gt;DetailModule03 -->
<g id="edge20" class="edge">
<title>Detail03HomeComponent&#45;&gt;DetailModule03</title>
<path fill="none" stroke="#000000" d="M1025,-229.9733C1025,-209.2328 1025,-178 1025,-178 1025,-178 720.9045,-178 720.9045,-178"/>
<polygon fill="#000000" stroke="#000000" points="720.9045,-174.5001 710.9045,-178 720.9044,-181.5001 720.9045,-174.5001"/>
</g>
</g>
</svg>
